<svg width="560" height="305" viewBox="0 0 560 305" fill="none" xmlns="http://www.w3.org/2000/svg">
<path d="M289.15 170.82C257.6 170.82 234.83 152.95 218.75 124.63L197.95 88.96L196.9 87.11L194.69 83.25L191.63 78.13L174.52 49.47L173.43 47.63C167.81 38.33 160.59 30.07 152.17 23.3L149.85 21.49C149.1 20.93 148.36 20.4 147.61 19.84C147.56 19.81 147.5 19.79 147.48 19.76C146.68 19.2 145.85 18.64 145.03 18.08C143.43 17 141.78 16 140.11 15.05C140.08 15.03 140.05 15.01 140.02 14.99C139.17 14.51 138.31 14.03 137.44 13.55C136.56 13.1 135.68 12.64 134.8 12.19C133.02 11.34 131.23 10.51 129.39 9.73999C126.09 8.34999 122.68 7.16001 119.19 6.17001C115.83 5.21001 112.42 4.44 108.91 3.88C107.98 3.72 107.05 3.59 106.09 3.45C104.09 3.18 102.07 2.97 100.02 2.84C98.9 2.76 97.76 2.70999 96.61 2.67999C95.65 2.64999 94.67 2.63 93.68 2.63H93.65C92.58 2.63 91.49 2.65999 90.43 2.67999C89.84 2.70999 89.26 2.72999 88.67 2.75999C87.92 2.78999 87.18 2.84 86.46 2.92C84.52 3.05 82.57 3.27 80.68 3.53C79.8 3.64 78.92 3.76999 78.07 3.92999C77.86 3.95999 77.64 3.97999 77.46 4.03999C76.29 4.24999 75.12 4.47001 73.97 4.71001C72.37 5.06001 70.8 5.46 69.23 5.88C68.43 6.09 67.6 6.33001 66.8 6.57001C66.51 6.65001 66.21 6.73 65.92 6.84C65.07 7.11 64.24 7.37001 63.42 7.67001C61.74 8.23001 60.12 8.84001 58.49 9.51001C57.58 9.88001 56.71 10.26 55.8 10.66C52.71 12.05 49.7 13.59 46.82 15.3C46.13 15.67 45.46 16.07 44.8 16.5C42.43 17.94 40.11 19.51 37.9 21.19C37.18 21.75 36.43 22.31 35.71 22.87C34.99 23.46 34.27 24.04 33.55 24.63C32.86 25.24 32.16 25.83 31.47 26.47C30.78 27.08 30.11 27.7 29.45 28.34C28.76 28.98 28.12 29.62 27.45 30.29C26.81 30.96 26.17 31.62 25.53 32.29C25 32.88 24.44 33.46 23.91 34.08C23.78 34.21 23.67 34.35 23.54 34.51C22.98 35.15 22.42 35.79 21.89 36.46C20.69 37.9 19.54 39.36 18.43 40.88C17.9 41.6 17.39 42.32 16.91 43.04C16.88 43.07 16.86 43.07 16.86 43.09C10.73 51.99 6.10002 62.01 3.35002 72.77C1.62002 79.48 0.630016 86.52 0.470016 93.74C0.460016 94.12 0.460022 94.52 0.460022 94.9L0.450012 94.88V95.92V228.8H16.89V148.74C17.57 149.72 18.26 150.7 18.96 151.64V151.67C19.87 152.84 20.75 153.99 21.65 155.11C23.09 156.84 24.61 158.55 26.18 160.2C26.71 160.73 27.22 161.27 27.75 161.8C29.32 163.4 30.97 164.92 32.68 166.38C33.24 166.86 33.8 167.34 34.38 167.82C35.53 168.75 36.7 169.69 37.9 170.59C38.49 171.04 39.1 171.47 39.71 171.9C40.32 172.33 40.94 172.75 41.55 173.18C42.78 174.03 44.05 174.86 45.33 175.61C47.25 176.78 49.22 177.87 51.24 178.91C51.91 179.26 52.57 179.58 53.26 179.92C53.93 180.24 54.62 180.56 55.31 180.88C56 181.2 56.7 181.49 57.39 181.79C58.67 182.32 59.95 182.83 61.25 183.33C62.37 183.76 63.51 184.13 64.66 184.5C65.3 184.71 65.94 184.93 66.6 185.11C67.11 185.27 67.64 185.43 68.15 185.56C68.71 185.72 69.3 185.88 69.88 186.04C70.79 186.28 71.69 186.52 72.6 186.71C73.13 186.84 73.67 186.95 74.17 187.06C78.43 187.99 82.8 188.61 87.23 188.9C88.54 188.98 89.87 189.03 91.2 189.09C92.03 189.12 92.82 189.12 93.65 189.12C94.58 189.12 95.49 189.09 96.42 189.07C97.11 189.07 97.81 189.04 98.47 188.99C99.22 188.96 99.94 188.91 100.68 188.86C101.83 188.78 103 188.67 104.14 188.54C106.16 188.3 108.19 188.01 110.16 187.66C110.59 187.58 111.01 187.5 111.44 187.42C112.19 187.29 112.91 187.13 113.62 186.97C113.99 186.89 114.34 186.81 114.71 186.73C116.76 186.25 118.81 185.72 120.81 185.1C121.74 184.81 122.65 184.51 123.55 184.22C123.71 184.14 123.87 184.11 124 184.06C127.17 182.97 130.29 181.72 133.3 180.28C135.3 179.35 137.27 178.31 139.19 177.24C140.15 176.71 141.11 176.15 142.04 175.56C143 175 143.93 174.41 144.84 173.8C145.75 173.19 146.68 172.57 147.56 171.93C147.59 171.93 147.61 171.9 147.61 171.9C148.49 171.26 149.37 170.62 150.22 169.96C151.07 169.29 151.95 168.63 152.8 167.94C155.33 165.86 157.78 163.62 160.07 161.28C167.74 153.45 174.06 144.28 178.64 134.16L167.98 115.08C167.71 116.09 167.42 117.13 167.13 118.12C166.86 119.03 166.57 119.93 166.25 120.81C166.2 121 166.14 121.18 166.06 121.34C165.77 122.27 165.42 123.21 165.02 124.11C164.67 125.1 164.25 126.08 163.79 127.04C163.39 128 162.96 128.93 162.46 129.86C162.01 130.82 161.53 131.75 161.02 132.66C160.03 134.5 158.97 136.28 157.8 138.01C156.12 140.59 154.26 143.1 152.23 145.44C152.2 145.49 152.15 145.52 152.12 145.57C150.81 147.12 149.46 148.61 147.99 150.05C147.32 150.77 146.6 151.46 145.86 152.13C145.81 152.16 145.75 152.21 145.73 152.24C145.06 152.88 144.37 153.49 143.68 154.05C143.57 154.16 143.44 154.26 143.31 154.4C142.67 154.96 142.03 155.47 141.39 155.94C141.15 156.18 140.88 156.37 140.62 156.55C139.95 157.11 139.26 157.62 138.57 158.1C138.54 158.13 138.52 158.15 138.49 158.15C137.66 158.79 136.81 159.38 135.96 159.91C134.57 160.84 133.16 161.72 131.7 162.55C130.42 163.27 129.12 163.99 127.81 164.63C127.17 164.98 126.5 165.3 125.81 165.59C125.2 165.88 124.58 166.15 123.95 166.42C123.68 166.55 123.42 166.66 123.12 166.77C122.35 167.12 121.52 167.44 120.72 167.73C120.37 167.86 120.05 168 119.71 168.1C118.99 168.37 118.27 168.63 117.52 168.85C115.92 169.38 114.27 169.86 112.62 170.29C111.45 170.58 110.3 170.85 109.1 171.09C109.07 171.09 109.07 171.09 109.07 171.09C108.11 171.3 107.15 171.49 106.17 171.62C105.5 171.75 104.81 171.86 104.15 171.94C103.67 172.02 103.19 172.07 102.74 172.1C102.07 172.21 101.41 172.29 100.74 172.31C100.15 172.39 99.57 172.44 98.96 172.44C98.37 172.52 97.79 172.55 97.2 172.55C96.03 172.63 94.83 172.66 93.63 172.66C72.08 172.66 52.6 163.79 38.67 149.45C37.21 147.96 35.79 146.39 34.43 144.76C31.77 141.51 29.34 138.05 27.21 134.4C26.14 132.56 25.16 130.67 24.25 128.75C23.8 127.79 23.34 126.81 22.94 125.85C21.69 122.89 20.62 119.86 19.74 116.71C19.45 115.67 19.18 114.63 18.94 113.57C17.58 107.89 16.86 101.98 16.86 95.91C16.86 93.27 16.99 90.63 17.26 88.05C17.26 88.05 17.26 88.05 17.26 88.02C19.47 66.25 30.77 47.18 47.31 34.63C47.31 34.63 47.31 34.63 47.34 34.63C49.18 33.24 51.07 31.94 53.02 30.71C54.01 30.1 55.02 29.51 56.03 28.92C58.06 27.8 60.13 26.76 62.24 25.8C71.83 21.51 82.44 19.11 93.63 19.11H93.76C94.88 19.11 96 19.14 97.12 19.22C97.36 19.19 97.6 19.22 97.81 19.25C98.96 19.28 100.07 19.38 101.19 19.49C101.38 19.52 101.59 19.52 101.78 19.54C102.79 19.65 103.8 19.78 104.79 19.91C105.19 19.96 105.56 20.02 105.96 20.1C106.89 20.26 107.8 20.42 108.7 20.58C109.29 20.71 109.85 20.82 110.41 20.98C112.19 21.35 113.93 21.81 115.66 22.34C116.35 22.53 117.05 22.74 117.71 22.98C119.36 23.54 121.01 24.13 122.64 24.79C123.33 25.06 124.03 25.35 124.69 25.67C126.02 26.23 127.33 26.84 128.58 27.53C128.79 27.64 129.03 27.77 129.25 27.88C129.89 28.17 130.5 28.52 131.12 28.89C132.51 29.64 133.86 30.46 135.2 31.34C135.87 31.74 136.53 32.17 137.17 32.65C138.25 33.38 139.29 34.18 140.33 34.99C140.54 35.16 140.77 35.3 140.98 35.47C141.59 35.92 142.21 36.4 142.82 36.96C143.43 37.47 144.02 37.97 144.63 38.51C145.22 38.99 145.8 39.52 146.36 40.11C146.95 40.62 147.53 41.18 148.06 41.76C149.21 42.88 150.27 44.02 151.28 45.22C152.35 46.39 153.36 47.62 154.29 48.87C155.76 50.76 157.11 52.71 158.39 54.7L158.58 54.97C159.99 57.23 161.3 59.58 162.5 61.98L162.85 62.62L167.81 71.44L186.43 104.64L192.37 114.41L192.56 114.75L206.25 137.23L206.51 137.65L208.94 141.65L208.95 141.63C225.2 168.97 255.03 187.31 289.16 187.31C327.55 187.31 360.52 164.08 374.81 130.91L363.83 111.85C355.8 145.65 325.42 170.82 289.15 170.82Z" fill="#EF5B34"/>
<path d="M411.9 71.53C412.01 71.08 412.17 70.62 412.33 70.2C412.57 69.43 412.84 68.65 413.1 67.91C413.31 67.3 413.55 66.68 413.79 66.07C413.95 65.59 414.14 65.14 414.35 64.68C414.62 64.01 414.91 63.35 415.23 62.68C416.06 60.76 416.99 58.87 418.03 57.06C418.38 56.42 418.75 55.78 419.12 55.14C419.55 54.39 420.03 53.65 420.48 52.9C421.36 51.51 422.29 50.13 423.28 48.8C423.39 48.64 423.52 48.48 423.65 48.32C424.02 47.79 424.42 47.28 424.82 46.77C425.41 45.97 426.05 45.2 426.71 44.42C427.83 43.09 428.98 41.81 430.2 40.58C430.81 39.97 431.43 39.35 432.04 38.74C432.68 38.13 433.32 37.54 433.96 36.96C434.6 36.35 435.27 35.79 435.93 35.25C436.6 34.69 437.26 34.13 437.95 33.6C438.48 33.17 439.04 32.75 439.58 32.35C439.95 32.08 440.33 31.82 440.67 31.58C441.18 31.21 441.68 30.86 442.19 30.51C443.63 29.52 445.09 28.59 446.61 27.71C447.36 27.26 448.1 26.86 448.87 26.43C448.92 26.4 448.98 26.38 449.03 26.35C449.75 25.95 450.49 25.58 451.27 25.2C453.35 24.16 455.45 23.23 457.61 22.4C458.36 22.11 459.1 21.84 459.87 21.57C461.23 21.09 462.59 20.64 463.97 20.24C465.04 19.95 466.1 19.65 467.17 19.41C467.25 19.38 467.33 19.36 467.41 19.36C468.18 19.17 468.98 18.99 469.75 18.83C470.28 18.72 470.82 18.62 471.32 18.51C472.28 18.35 473.26 18.19 474.22 18.06C474.81 17.98 475.39 17.9 475.98 17.85C476.41 17.77 476.83 17.72 477.26 17.69C477.95 17.61 478.65 17.53 479.34 17.5C479.55 17.47 479.77 17.45 480.01 17.45C480.78 17.4 481.53 17.34 482.3 17.32C483.29 17.29 484.27 17.27 485.28 17.27C511.36 17.27 534.4 30.3 548.27 50.19L559.71 37.94C559.53 37.71 559.37 37.47 559.19 37.25C558.76 36.66 558.31 36.1 557.83 35.52C556.92 34.37 555.97 33.26 554.98 32.14C554.5 31.61 553.99 31.05 553.52 30.51C553.01 29.98 552.51 29.44 551.97 28.91C551.46 28.4 550.96 27.87 550.42 27.36C549.38 26.32 548.29 25.34 547.2 24.35C546.64 23.87 546.11 23.39 545.55 22.91C544.99 22.43 544.4 21.95 543.84 21.5C541.5 19.61 539.07 17.82 536.54 16.14C535.98 15.79 535.42 15.42 534.86 15.07C522.23 7.10001 507.58 2.12 491.83 1.03C490.5 0.919999 489.14 0.870007 487.75 0.820007C486.92 0.790007 486.1 0.789993 485.27 0.789993C484.07 0.789993 482.87 0.819995 481.7 0.869995C481.19 0.869995 480.69 0.899998 480.21 0.919998C479.2 0.969998 478.21 1.05 477.2 1.13C475.87 1.24 474.56 1.4 473.23 1.56C472.25 1.69 471.28 1.83001 470.3 1.99001C469.21 2.15001 468.14 2.36 467.08 2.58C465.96 2.79 464.87 3.03 463.78 3.3C463.38 3.38 463.01 3.49001 462.63 3.57001C461.99 3.73001 461.35 3.92 460.74 4.08C459.17 4.51 457.6 4.96001 456.08 5.49001C455.33 5.73001 454.56 6.00001 453.82 6.26001C452.43 6.77001 451.08 7.26999 449.72 7.82999C447.96 8.54999 446.23 9.32001 444.55 10.17C443.96 10.44 443.41 10.73 442.82 11.02C442.1 11.37 441.41 11.74 440.72 12.14C440.03 12.51 439.33 12.91 438.64 13.31C437.89 13.71 437.17 14.14 436.48 14.59C435.17 15.39 433.9 16.24 432.62 17.09C430.67 18.45 428.76 19.86 426.92 21.33C425.69 22.32 424.49 23.35 423.32 24.39C422.73 24.92 422.15 25.46 421.56 25.99C420.97 26.5 420.42 27.06 419.85 27.62C419.29 28.18 418.73 28.74 418.2 29.3C417.64 29.86 417.08 30.45 416.57 31.03C414.89 32.87 413.27 34.76 411.75 36.73C410.2 38.7 408.74 40.73 407.38 42.8C405.99 44.9 404.72 47.04 403.49 49.25C402.32 51.41 401.2 53.62 400.19 55.88C400.16 55.91 400.14 55.96 400.14 56.01L410.93 74.85C411.23 73.77 411.55 72.65 411.9 71.53Z" fill="#EF5B34"/>
<path d="M485.3 170.83C483.84 170.83 482.37 170.78 480.93 170.7C479.84 170.65 478.74 170.57 477.65 170.43C477.49 170.43 477.36 170.43 477.22 170.4C476.15 170.29 475.06 170.16 474 170C473.71 169.97 473.44 169.92 473.17 169.87C472.24 169.74 471.3 169.55 470.4 169.36C469.65 169.23 468.94 169.09 468.19 168.91C467.39 168.72 466.62 168.54 465.85 168.35C463 167.6 460.2 166.7 457.51 165.63C456.9 165.39 456.28 165.12 455.67 164.88C454.13 164.27 452.63 163.57 451.19 162.83C450.44 162.46 449.73 162.08 449 161.68C447.56 160.91 446.15 160.08 444.74 159.23C443.35 158.35 442 157.44 440.66 156.49C439.99 156.01 439.33 155.53 438.66 155.02C437.99 154.54 437.35 154.03 436.74 153.5C435.46 152.49 434.24 151.42 433.04 150.28C432.56 149.83 432.08 149.37 431.63 148.92C431.42 148.76 431.2 148.55 431.02 148.33C430.54 147.85 430.06 147.34 429.58 146.84C429.02 146.25 428.49 145.67 427.93 145.05C427.4 144.46 426.86 143.85 426.36 143.21C425.83 142.57 425.32 141.93 424.84 141.29C424.33 140.65 423.85 140.01 423.38 139.37C422.9 138.7 422.42 138.04 421.97 137.37C421.46 136.62 420.96 135.85 420.45 135.08C419.04 132.82 417.76 130.47 416.51 128.1C416.46 128.05 416.43 127.97 416.4 127.89C414.69 124.64 413.04 121.34 411.23 118.19C410.51 116.91 409.79 115.63 409.04 114.35C408.03 112.54 406.99 110.75 405.98 108.94L392.47 85.28V85.25L390.29 81.41L369 45.82C368.73 45.37 368.44 44.94 368.15 44.51C368.1 44.4 368.02 44.32 367.96 44.22L367.93 44.24C351.4 18.15 322.3 0.809998 289.15 0.809998C251.19 0.809998 218.53 23.5 203.99 56.05L214.8 74.88C223.32 41.75 253.37 17.28 289.16 17.28C318.45 17.28 343.9 33.69 356.84 57.83C357.01 58.12 357.2 58.45 357.37 58.76C357.61 59.22 357.85 59.66 358.08 60.13L368.1 78L375.83 91.75L382.38 103.47L382.43 103.55L388.72 114.74C388.72 114.74 400.36 133.87 404.04 139.84C404.17 140.05 404.28 140.27 404.41 140.48C404.62 140.83 404.81 141.12 404.92 141.31C404.95 141.39 404.97 141.44 405.05 141.52C405.08 141.57 405.1 141.6 405.1 141.6C406.11 143.3 407.18 144.98 408.3 146.64C409.42 148.27 410.59 149.86 411.82 151.44C411.85 151.52 411.9 151.57 411.95 151.63C413.12 153.12 414.35 154.59 415.6 156C416.93 157.47 418.29 158.9 419.68 160.29C421.78 162.39 424 164.37 426.29 166.26C428.61 168.15 430.98 169.94 433.46 171.56C434.23 172.09 435.01 172.6 435.8 173.1C436.2 173.34 436.63 173.61 437.03 173.85C437.64 174.22 438.28 174.6 438.9 174.94C440.07 175.63 441.24 176.27 442.47 176.88C445.56 178.5 448.76 179.92 452.04 181.17C452.87 181.49 453.69 181.81 454.54 182.1C456.27 182.71 458 183.25 459.79 183.75C460.38 183.91 460.94 184.07 461.52 184.23C464.32 184.98 467.19 185.59 470.1 186.04C470.98 186.2 471.86 186.33 472.74 186.44C473.75 186.6 474.76 186.71 475.78 186.81H475.86C476.79 186.92 477.78 187 478.74 187.05C480.9 187.21 483.11 187.29 485.32 187.29C486.31 187.29 487.32 187.26 488.3 187.24C489.45 187.21 490.57 187.16 491.68 187.08C492.51 187.03 493.33 186.95 494.16 186.87C496.1 186.71 498.05 186.44 499.94 186.15C500.55 186.04 501.19 185.96 501.8 185.83C502.49 185.72 503.19 185.59 503.88 185.43C504.04 185.4 504.23 185.38 504.39 185.35C505.06 185.19 505.72 185.06 506.36 184.9C511.74 183.67 516.91 181.97 521.89 179.84C522.72 179.49 523.54 179.12 524.34 178.75C525.19 178.35 526.04 177.95 526.87 177.52C527.7 177.12 528.52 176.69 529.35 176.24C529.48 176.19 529.62 176.11 529.75 176.03C531.08 175.31 532.36 174.56 533.64 173.79C533.91 173.63 534.17 173.5 534.41 173.31C535.08 172.91 535.74 172.48 536.38 172.06C538.75 170.51 541.04 168.86 543.25 167.08C544.69 165.93 546.1 164.74 547.49 163.51C548.16 162.9 548.85 162.28 549.51 161.64C549.54 161.61 549.59 161.59 549.62 161.56C550.26 160.92 550.87 160.31 551.49 159.69C554.02 157.13 556.39 154.44 558.63 151.62C558.71 151.54 558.79 151.43 558.84 151.35C559.15 150.96 559.44 150.55 559.74 150.16L548.3 137.91C534.42 157.8 511.39 170.83 485.3 170.83Z" fill="#EF5B34"/>
<path d="M66 293.76V256.84H77.96C79.54 256.84 81.03 257.1 82.42 257.62C83.81 258.13 85.02 258.86 86.06 259.81C87.09 260.76 87.91 261.89 88.51 263.21C89.11 264.53 89.41 266 89.41 267.62C89.41 269.24 89.11 270.71 88.51 272.03C87.91 273.35 87.09 274.49 86.06 275.43C85.03 276.38 83.82 277.1 82.42 277.62C81.03 278.13 79.54 278.39 77.96 278.39H69.3V293.76H66ZM78.12 275.24C79.25 275.24 80.3 275.04 81.26 274.65C82.22 274.26 83.06 273.71 83.76 273.03C84.46 272.34 85.02 271.53 85.44 270.6C85.85 269.67 86.06 268.68 86.06 267.61C86.06 266.55 85.85 265.54 85.44 264.59C85.03 263.65 84.47 262.84 83.76 262.17C83.05 261.5 82.22 260.97 81.26 260.57C80.3 260.17 79.25 259.98 78.12 259.98H69.3V275.24H78.12Z" fill="#EF5B34"/>
<path d="M98.95 293.76V268.49H102.04V272.93H102.25C102.49 272.17 102.87 271.48 103.41 270.84C103.94 270.21 104.55 269.66 105.22 269.19C105.89 268.72 106.59 268.35 107.33 268.08C108.07 267.81 108.78 267.67 109.47 267.67C110.26 267.67 110.91 267.73 111.43 267.85C111.95 267.97 112.44 268.17 112.93 268.44L111.9 271.43C111.21 271.09 110.27 270.92 109.07 270.92C108.18 270.92 107.32 271.14 106.49 271.56C105.66 271.99 104.94 272.59 104.32 273.35C103.7 274.11 103.2 275.02 102.82 276.07C102.44 277.12 102.25 278.27 102.25 279.51V293.76H98.95Z" fill="#EF5B34"/>
<path d="M130.97 267.67C132.83 267.67 134.54 268.01 136.1 268.7C137.66 269.39 139.01 270.34 140.15 271.54C141.29 272.74 142.17 274.16 142.81 275.79C143.45 277.43 143.76 279.2 143.76 281.13C143.76 283.06 143.44 284.84 142.81 286.47C142.18 288.1 141.29 289.52 140.15 290.73C139.02 291.93 137.67 292.88 136.1 293.57C134.53 294.26 132.82 294.6 130.97 294.6C129.15 294.6 127.46 294.26 125.89 293.57C124.32 292.89 122.98 291.94 121.84 290.73C120.7 289.53 119.82 288.11 119.18 286.47C118.54 284.83 118.23 283.06 118.23 281.13C118.23 279.21 118.55 277.43 119.18 275.79C119.82 274.16 120.7 272.74 121.84 271.54C122.98 270.34 124.32 269.39 125.89 268.7C127.45 268.01 129.15 267.67 130.97 267.67ZM130.97 291.59C132.21 291.59 133.39 291.34 134.53 290.84C135.67 290.35 136.67 289.64 137.55 288.73C138.43 287.82 139.13 286.72 139.66 285.43C140.19 284.14 140.46 282.71 140.46 281.12C140.46 279.54 140.19 278.1 139.66 276.81C139.13 275.52 138.42 274.42 137.55 273.51C136.68 272.6 135.67 271.89 134.53 271.4C133.4 270.9 132.21 270.65 130.97 270.65C129.73 270.65 128.55 270.9 127.41 271.4C126.27 271.9 125.27 272.6 124.39 273.51C123.51 274.42 122.82 275.52 122.3 276.81C121.79 278.1 121.53 279.53 121.53 281.12C121.53 282.7 121.79 284.14 122.3 285.43C122.82 286.72 123.51 287.82 124.39 288.73C125.27 289.64 126.27 290.35 127.41 290.84C128.54 291.34 129.73 291.59 130.97 291.59Z" fill="#EF5B34"/>
<path d="M164.64 267.67C166.5 267.67 168.21 268.01 169.77 268.7C171.33 269.39 172.68 270.34 173.82 271.54C174.96 272.74 175.84 274.16 176.48 275.79C177.12 277.43 177.43 279.2 177.43 281.13C177.43 283.06 177.11 284.84 176.48 286.47C175.85 288.1 174.96 289.52 173.82 290.73C172.69 291.93 171.34 292.88 169.77 293.57C168.2 294.26 166.49 294.6 164.64 294.6C162.82 294.6 161.13 294.26 159.56 293.57C157.99 292.89 156.65 291.94 155.51 290.73C154.37 289.53 153.49 288.11 152.85 286.47C152.21 284.83 151.9 283.06 151.9 281.13C151.9 279.21 152.22 277.43 152.85 275.79C153.49 274.16 154.37 272.74 155.51 271.54C156.65 270.34 157.99 269.39 159.56 268.7C161.13 268.01 162.82 267.67 164.64 267.67ZM164.64 291.59C165.88 291.59 167.06 291.34 168.2 290.84C169.34 290.35 170.34 289.64 171.22 288.73C172.1 287.82 172.8 286.72 173.33 285.43C173.86 284.14 174.13 282.71 174.13 281.12C174.13 279.54 173.86 278.1 173.33 276.81C172.8 275.52 172.09 274.42 171.22 273.51C170.35 272.6 169.34 271.89 168.2 271.4C167.07 270.9 165.88 270.65 164.64 270.65C163.4 270.65 162.22 270.9 161.08 271.4C159.94 271.9 158.94 272.6 158.06 273.51C157.18 274.42 156.49 275.52 155.97 276.81C155.46 278.1 155.2 279.53 155.2 281.12C155.2 282.7 155.46 284.14 155.97 285.43C156.49 286.72 157.18 287.82 158.06 288.73C158.94 289.64 159.94 290.35 161.08 290.84C162.22 291.34 163.4 291.59 164.64 291.59Z" fill="#EF5B34"/>
<path d="M196.87 256.42C197.8 256.42 198.6 256.52 199.27 256.71C199.94 256.9 200.5 257.13 200.95 257.4L200.02 260.29C199.64 260.05 199.2 259.85 198.71 259.7C198.21 259.55 197.63 259.47 196.98 259.47C195.81 259.47 194.79 259.89 193.94 260.73C193.08 261.58 192.65 262.8 192.65 264.42V268.49H199.25V271.48H192.65V293.76H189.35V271.48H184.6V268.49H189.35V264.11C189.35 262.87 189.56 261.77 189.97 260.81C190.38 259.85 190.94 259.04 191.65 258.38C192.35 257.73 193.15 257.24 194.05 256.91C194.92 256.59 195.87 256.42 196.87 256.42Z" fill="#EF5B34"/>
<path d="M237.75 267.67C239.61 267.67 241.32 268.01 242.88 268.7C244.44 269.39 245.79 270.34 246.93 271.54C248.07 272.74 248.95 274.16 249.59 275.79C250.23 277.43 250.54 279.2 250.54 281.13C250.54 283.06 250.22 284.84 249.59 286.47C248.96 288.1 248.07 289.52 246.93 290.73C245.8 291.93 244.45 292.88 242.88 293.57C241.31 294.26 239.6 294.6 237.75 294.6C235.93 294.6 234.24 294.26 232.67 293.57C231.1 292.89 229.76 291.94 228.62 290.73C227.48 289.53 226.6 288.11 225.96 286.47C225.32 284.83 225.01 283.06 225.01 281.13C225.01 279.21 225.33 277.43 225.96 275.79C226.6 274.16 227.48 272.74 228.62 271.54C229.76 270.34 231.1 269.39 232.67 268.7C234.24 268.01 235.93 267.67 237.75 267.67ZM237.75 291.59C238.99 291.59 240.17 291.34 241.31 290.84C242.45 290.35 243.45 289.64 244.33 288.73C245.21 287.82 245.91 286.72 246.44 285.43C246.97 284.14 247.24 282.71 247.24 281.12C247.24 279.54 246.97 278.1 246.44 276.81C245.91 275.52 245.2 274.42 244.33 273.51C243.46 272.6 242.45 271.89 241.31 271.4C240.18 270.9 238.99 270.65 237.75 270.65C236.51 270.65 235.33 270.9 234.19 271.4C233.05 271.9 232.05 272.6 231.17 273.51C230.29 274.42 229.6 275.52 229.08 276.81C228.57 278.1 228.31 279.53 228.31 281.12C228.31 282.7 228.57 284.14 229.08 285.43C229.6 286.72 230.29 287.82 231.17 288.73C232.05 289.64 233.05 290.35 234.19 290.84C235.33 291.34 236.52 291.59 237.75 291.59Z" fill="#EF5B34"/>
<path d="M269.98 256.42C270.91 256.42 271.71 256.52 272.38 256.71C273.05 256.9 273.61 257.13 274.06 257.4L273.13 260.29C272.75 260.05 272.31 259.85 271.82 259.7C271.32 259.55 270.74 259.47 270.09 259.47C268.92 259.47 267.9 259.89 267.05 260.73C266.19 261.58 265.76 262.8 265.76 264.42V268.49H272.36V271.48H265.76V293.76H262.46V271.48H257.71V268.49H262.46V264.11C262.46 262.87 262.67 261.77 263.08 260.81C263.49 259.85 264.05 259.04 264.76 258.38C265.46 257.73 266.26 257.24 267.16 256.91C268.04 256.59 268.98 256.42 269.98 256.42Z" fill="#EF5B34"/>
<path d="M330.93 287.88C329.28 289.87 327.26 291.49 324.87 292.72C322.48 293.96 319.7 294.58 316.54 294.58C313.83 294.58 311.32 294.08 309.01 293.08C306.71 292.08 304.71 290.72 303.03 288.98C301.34 287.24 300.02 285.2 299.06 282.84C298.1 280.49 297.61 277.97 297.61 275.29C297.61 272.61 298.09 270.09 299.06 267.74C300.02 265.38 301.34 263.34 303.03 261.6C304.71 259.87 306.71 258.5 309.01 257.5C311.31 256.5 313.82 256 316.54 256C319.39 256 321.92 256.52 324.12 257.58C326.32 258.63 328.24 260.11 329.9 262.04L327.53 264.31C324.71 260.87 321.05 259.15 316.54 259.15C314.41 259.15 312.4 259.55 310.51 260.33C308.62 261.13 306.97 262.22 305.56 263.63C304.15 265.04 303.03 266.73 302.21 268.71C301.38 270.69 300.97 272.88 300.97 275.29C300.97 277.7 301.38 279.89 302.21 281.87C303.04 283.84 304.15 285.55 305.56 286.97C306.97 288.4 308.62 289.5 310.51 290.27C312.4 291.04 314.41 291.43 316.54 291.43C319.12 291.43 321.39 290.92 323.35 289.88C325.31 288.85 327.04 287.42 328.56 285.6L330.93 287.88Z" fill="#EF5B34"/>
<path d="M351.3 267.67C353.16 267.67 354.87 268.01 356.43 268.7C357.99 269.39 359.34 270.34 360.48 271.54C361.62 272.74 362.5 274.16 363.14 275.79C363.78 277.43 364.09 279.2 364.09 281.13C364.09 283.06 363.77 284.84 363.14 286.47C362.5 288.1 361.62 289.52 360.48 290.73C359.35 291.93 358 292.88 356.43 293.57C354.86 294.26 353.15 294.6 351.3 294.6C349.48 294.6 347.79 294.26 346.22 293.57C344.65 292.89 343.31 291.94 342.17 290.73C341.03 289.52 340.15 288.11 339.51 286.47C338.87 284.84 338.56 283.06 338.56 281.13C338.56 279.21 338.88 277.43 339.51 275.79C340.15 274.16 341.03 272.74 342.17 271.54C343.31 270.34 344.65 269.39 346.22 268.7C347.78 268.01 349.48 267.67 351.3 267.67ZM351.3 291.59C352.54 291.59 353.72 291.34 354.86 290.84C356 290.35 357 289.64 357.88 288.73C358.76 287.82 359.46 286.72 359.99 285.43C360.52 284.14 360.79 282.71 360.79 281.12C360.79 279.54 360.52 278.1 359.99 276.81C359.46 275.52 358.75 274.42 357.88 273.51C357 272.6 356 271.89 354.86 271.4C353.73 270.9 352.54 270.65 351.3 270.65C350.06 270.65 348.88 270.9 347.74 271.4C346.6 271.9 345.6 272.6 344.72 273.51C343.84 274.42 343.15 275.52 342.63 276.81C342.12 278.1 341.86 279.53 341.86 281.12C341.86 282.7 342.12 284.14 342.63 285.43C343.15 286.72 343.84 287.82 344.72 288.73C345.6 289.64 346.6 290.35 347.74 290.84C348.87 291.34 350.06 291.59 351.3 291.59Z" fill="#EF5B34"/>
<path d="M376.36 273.23H376.57C376.98 272.47 377.48 271.76 378.06 271.09C378.64 270.42 379.32 269.83 380.1 269.31C380.88 268.8 381.73 268.39 382.65 268.1C383.58 267.81 384.58 267.66 385.64 267.66C387.19 267.66 388.55 267.91 389.71 268.41C390.88 268.91 391.85 269.61 392.62 270.52C393.39 271.43 393.97 272.51 394.35 273.77C394.73 275.02 394.92 276.41 394.92 277.92V293.75H391.62V278.49C391.62 275.78 391.02 273.79 389.81 272.53C388.61 271.28 386.92 270.65 384.76 270.65C383.56 270.65 382.46 270.92 381.46 271.45C380.46 271.98 379.6 272.7 378.88 273.62C378.16 274.53 377.59 275.57 377.18 276.74C376.77 277.91 376.56 279.13 376.56 280.4V293.75H373.26V268.48H376.35V273.23H376.36Z" fill="#EF5B34"/>
<path d="M428.02 287.36C427.57 288.39 427.02 289.34 426.35 290.23C425.68 291.11 424.9 291.86 424 292.5C423.11 293.14 422.07 293.64 420.91 294.02C419.74 294.4 418.45 294.59 417.04 294.59C415.22 294.59 413.53 294.25 411.99 293.56C410.44 292.88 409.11 291.93 407.99 290.72C406.87 289.52 406 288.1 405.36 286.46C404.72 284.83 404.41 283.05 404.41 281.12C404.41 279.2 404.73 277.42 405.36 275.78C406 274.15 406.87 272.73 407.99 271.53C409.11 270.33 410.44 269.38 411.99 268.69C413.54 268.01 415.22 267.66 417.04 267.66C418.45 267.66 419.73 267.84 420.88 268.2C422.03 268.56 423.06 269.07 423.97 269.72C424.88 270.37 425.66 271.13 426.31 271.99C426.96 272.85 427.5 273.79 427.91 274.82L424.97 276.11C424.21 274.36 423.16 273.01 421.83 272.06C420.49 271.11 418.84 270.64 416.88 270.64C415.71 270.64 414.58 270.89 413.48 271.39C412.38 271.89 411.4 272.59 410.54 273.5C409.68 274.41 408.99 275.51 408.48 276.8C407.97 278.09 407.71 279.52 407.71 281.11C407.71 282.69 407.97 284.13 408.48 285.42C409 286.71 409.68 287.81 410.54 288.72C411.4 289.63 412.38 290.34 413.48 290.83C414.58 291.33 415.71 291.58 416.88 291.58C418.84 291.58 420.51 291.11 421.88 290.16C423.25 289.22 424.32 287.87 425.08 286.11L428.02 287.36Z" fill="#EF5B34"/>
<path d="M459.38 287.77C458.93 288.7 458.37 289.58 457.68 290.4C456.99 291.23 456.19 291.95 455.28 292.57C454.37 293.19 453.33 293.68 452.16 294.04C450.99 294.4 449.7 294.58 448.29 294.58C446.47 294.58 444.78 294.24 443.23 293.57C441.68 292.9 440.35 291.96 439.23 290.76C438.11 289.56 437.25 288.14 436.63 286.5C436.01 284.87 435.7 283.07 435.7 281.11C435.7 279.29 435.98 277.56 436.55 275.93C437.12 274.3 437.93 272.87 439 271.65C440.07 270.43 441.35 269.46 442.87 268.74C444.38 268.01 446.09 267.66 447.98 267.66C449.8 267.66 451.44 267.98 452.9 268.61C454.36 269.24 455.61 270.14 456.64 271.29C457.67 272.44 458.47 273.83 459.04 275.44C459.61 277.06 459.89 278.84 459.89 280.8C459.89 280.9 459.89 281.01 459.89 281.11C459.85 281.22 459.84 281.3 459.84 281.37V281.68H439.06C439.09 283.43 439.4 284.93 439.99 286.17C440.57 287.4 441.31 288.43 442.21 289.24C443.1 290.05 444.1 290.64 445.2 291.02C446.3 291.4 447.37 291.59 448.4 291.59C450.53 291.59 452.22 291.1 453.46 290.12C454.7 289.14 455.73 287.89 456.55 286.38L459.38 287.77ZM456.43 278.91C456.4 278.08 456.22 277.19 455.92 276.23C455.61 275.27 455.13 274.38 454.47 273.55C453.81 272.72 452.95 272.04 451.87 271.49C450.79 270.94 449.46 270.66 447.87 270.66C446.84 270.66 445.84 270.84 444.88 271.2C443.92 271.56 443.05 272.09 442.28 272.77C441.5 273.46 440.85 274.32 440.32 275.35C439.79 276.38 439.44 277.57 439.27 278.91H456.43Z" fill="#EF5B34"/>
<path d="M469.38 268.49H472.47V272.88H472.68C473.09 272.19 473.59 271.53 474.18 270.9C474.76 270.26 475.45 269.7 476.24 269.22C477.03 268.74 477.92 268.36 478.92 268.08C479.92 267.81 481.01 267.67 482.22 267.67C483.84 267.67 485.37 268 486.81 268.67C488.26 269.34 489.52 270.27 490.6 271.45C491.68 272.64 492.54 274.05 493.18 275.71C493.82 277.36 494.13 279.16 494.13 281.12C494.13 283.08 493.81 284.89 493.18 286.53C492.55 288.18 491.68 289.6 490.6 290.79C489.52 291.98 488.26 292.9 486.81 293.57C485.37 294.24 483.84 294.58 482.22 294.58C481.02 294.58 479.92 294.43 478.92 294.14C477.92 293.85 477.03 293.46 476.24 292.98C475.45 292.5 474.76 291.94 474.18 291.31C473.59 290.67 473.09 290.01 472.68 289.32H472.47L472.68 292.83V304.9H469.38V268.49ZM481.65 291.59C482.85 291.59 484.01 291.35 485.13 290.87C486.25 290.39 487.22 289.7 488.07 288.81C488.91 287.92 489.58 286.82 490.08 285.51C490.58 284.2 490.83 282.74 490.83 281.12C490.83 279.5 490.58 278.05 490.08 276.76C489.58 275.47 488.91 274.37 488.07 273.46C487.23 272.55 486.25 271.85 485.13 271.37C484.01 270.89 482.85 270.64 481.65 270.64C480.45 270.64 479.29 270.88 478.17 271.34C477.05 271.8 476.07 272.48 475.23 273.37C474.39 274.27 473.72 275.36 473.22 276.67C472.72 277.97 472.47 279.45 472.47 281.1C472.47 282.75 472.72 284.22 473.22 285.51C473.72 286.8 474.39 287.9 475.23 288.81C476.07 289.72 477.05 290.41 478.17 290.87C479.28 291.36 480.44 291.59 481.65 291.59Z" fill="#EF5B34"/>
<path d="M505.63 271.48H501.04V268.49H505.63V260.76H508.93V268.49H515.22V271.48H508.93V287.01C508.93 288.52 509.29 289.64 510.01 290.38C510.7 291.15 511.52 291.54 512.48 291.54C513 291.54 513.43 291.49 513.79 291.41C514.15 291.32 514.56 291.18 515 290.97L516.03 293.81C515.45 294.09 514.85 294.28 514.25 294.4C513.65 294.52 512.93 294.58 512.11 294.58C510.32 294.58 508.81 294 507.57 292.85C506.95 292.26 506.47 291.53 506.13 290.67C505.79 289.81 505.61 288.77 505.61 287.55V271.48H505.63Z" fill="#EF5B34"/>
</svg>
