<svg width="560" height="230" viewBox="0 0 560 230" fill="none" xmlns="http://www.w3.org/2000/svg">
<path d="M289.15 171.02C257.6 171.02 234.83 153.15 218.75 124.83L197.95 89.16L196.9 87.31L194.69 83.45L191.63 78.33L174.52 49.67L173.43 47.83C167.81 38.53 160.59 30.27 152.17 23.5L149.85 21.69C149.1 21.13 148.36 20.6 147.61 20.04C147.56 20.01 147.5 19.99 147.48 19.96C146.68 19.4 145.85 18.84 145.03 18.28C143.43 17.2 141.78 16.2 140.11 15.25C140.08 15.23 140.05 15.21 140.02 15.19C139.17 14.71 138.31 14.23 137.44 13.75C136.56 13.3 135.68 12.84 134.8 12.39C133.02 11.54 131.23 10.71 129.39 9.94C126.09 8.55 122.68 7.35999 119.19 6.37C115.83 5.41 112.42 4.63999 108.91 4.07999C107.98 3.91999 107.05 3.78999 106.09 3.64999C104.09 3.37999 102.07 3.17001 100.02 3.04001C98.8999 2.96001 97.7599 2.91 96.6099 2.88C95.6499 2.85 94.6699 2.82999 93.6799 2.82999H93.6499C92.5799 2.82999 91.4899 2.86 90.4299 2.88C89.84 2.91 89.26 2.92999 88.67 2.95999C87.92 2.98999 87.1799 3.04 86.4599 3.12C84.5199 3.25 82.5699 3.47001 80.6799 3.73001C79.7999 3.84001 78.92 3.97 78.07 4.13C77.86 4.16 77.6399 4.17999 77.4599 4.23999C76.2899 4.44999 75.12 4.67 73.97 4.91C72.37 5.26 70.8 5.65999 69.23 6.07999C68.43 6.28999 67.5999 6.52999 66.7999 6.76999C66.5099 6.84999 66.21 6.93001 65.92 7.04001C65.07 7.31001 64.24 7.56999 63.42 7.87C61.74 8.43 60.1199 9.03999 58.4899 9.70999C57.5799 10.08 56.7099 10.46 55.7999 10.86C52.7099 12.25 49.7 13.79 46.82 15.5C46.13 15.87 45.4599 16.27 44.7999 16.7C42.4299 18.14 40.1099 19.71 37.8999 21.39C37.1799 21.95 36.4299 22.51 35.7099 23.07C34.9899 23.66 34.2699 24.24 33.5499 24.83C32.8599 25.44 32.16 26.03 31.47 26.67C30.78 27.28 30.11 27.9 29.45 28.54C28.76 29.18 28.12 29.82 27.45 30.48C26.81 31.15 26.17 31.81 25.53 32.48C25 33.07 24.44 33.65 23.91 34.27C23.78 34.4 23.67 34.54 23.54 34.7C22.98 35.34 22.42 35.98 21.89 36.64C20.69 38.08 19.5399 39.54 18.4299 41.06C17.8999 41.78 17.39 42.5 16.91 43.22C16.88 43.25 16.8599 43.25 16.8599 43.27C10.7299 52.17 6.09996 62.19 3.34996 72.95C1.61996 79.66 0.629955 86.7 0.469955 93.92C0.459955 94.3 0.459961 94.69 0.459961 95.08L0.449951 95.06V96.1V229.02H16.89V148.96C17.57 149.94 18.2599 150.92 18.9599 151.86V151.89C19.8699 153.06 20.7499 154.21 21.6499 155.33C23.0899 157.06 24.6099 158.77 26.1799 160.42C26.7099 160.95 27.22 161.49 27.75 162.02C29.32 163.62 30.9699 165.14 32.6799 166.6C33.2399 167.08 33.8 167.56 34.38 168.04C35.53 168.97 36.6999 169.91 37.8999 170.81C38.4899 171.26 39.0999 171.69 39.7099 172.12C40.3199 172.55 40.9399 172.97 41.5499 173.4C42.7799 174.25 44.0499 175.08 45.3299 175.83C47.2499 177 49.2199 178.09 51.2399 179.13C51.9099 179.48 52.57 179.8 53.26 180.14C53.93 180.46 54.62 180.78 55.31 181.1C56 181.42 56.7 181.71 57.39 182.01C58.67 182.54 59.95 183.05 61.25 183.55C62.37 183.98 63.51 184.35 64.66 184.72C65.3 184.93 65.94 185.15 66.6 185.33C67.11 185.49 67.6399 185.65 68.1499 185.78C68.7099 185.94 69.3 186.1 69.88 186.26C70.79 186.5 71.69 186.74 72.6 186.93C73.13 187.06 73.67 187.17 74.17 187.28C78.43 188.21 82.8 188.83 87.23 189.12C88.54 189.2 89.87 189.25 91.2 189.31C92.03 189.34 92.8199 189.34 93.6499 189.34C94.5799 189.34 95.49 189.31 96.42 189.29C97.11 189.29 97.81 189.26 98.47 189.21C99.22 189.18 99.9399 189.13 100.68 189.08C101.83 189 103 188.89 104.14 188.76C106.16 188.52 108.19 188.23 110.16 187.88C110.59 187.8 111.01 187.72 111.44 187.64C112.19 187.51 112.91 187.35 113.62 187.19C113.99 187.11 114.34 187.03 114.71 186.95C116.76 186.47 118.81 185.94 120.81 185.32C121.74 185.03 122.65 184.73 123.55 184.44C123.71 184.36 123.87 184.33 124 184.28C127.17 183.19 130.29 181.94 133.3 180.5C135.3 179.57 137.27 178.53 139.19 177.46C140.15 176.93 141.11 176.37 142.04 175.78C143 175.22 143.93 174.63 144.84 174.02C145.75 173.41 146.68 172.79 147.56 172.15C147.59 172.15 147.61 172.12 147.61 172.12C148.49 171.48 149.37 170.84 150.22 170.18C151.07 169.51 151.95 168.85 152.8 168.16C155.33 166.08 157.78 163.84 160.07 161.5C167.74 153.67 174.06 144.5 178.64 134.38L167.98 115.3C167.71 116.31 167.42 117.35 167.13 118.34C166.86 119.25 166.57 120.15 166.25 121.03C166.2 121.22 166.14 121.4 166.06 121.56C165.77 122.49 165.42 123.43 165.02 124.33C164.67 125.32 164.25 126.3 163.79 127.26C163.39 128.22 162.96 129.15 162.46 130.08C162.01 131.04 161.53 131.97 161.02 132.88C160.03 134.72 158.97 136.5 157.8 138.23C156.12 140.81 154.26 143.32 152.23 145.66C152.2 145.71 152.15 145.74 152.12 145.79C150.81 147.34 149.46 148.83 147.99 150.27C147.32 150.99 146.6 151.68 145.86 152.35C145.81 152.38 145.75 152.43 145.73 152.46C145.06 153.1 144.37 153.71 143.68 154.27C143.57 154.38 143.44 154.48 143.31 154.62C142.67 155.18 142.03 155.69 141.39 156.16C141.15 156.4 140.88 156.59 140.62 156.77C139.95 157.33 139.26 157.84 138.57 158.32C138.54 158.35 138.52 158.37 138.49 158.37C137.66 159.01 136.81 159.6 135.96 160.13C134.57 161.06 133.16 161.94 131.7 162.77C130.42 163.49 129.12 164.21 127.81 164.85C127.17 165.2 126.5 165.52 125.81 165.81C125.2 166.1 124.58 166.37 123.95 166.64C123.68 166.77 123.42 166.88 123.12 166.99C122.35 167.34 121.52 167.66 120.72 167.95C120.37 168.08 120.05 168.22 119.71 168.32C118.99 168.59 118.27 168.85 117.52 169.07C115.92 169.6 114.27 170.08 112.62 170.51C111.45 170.8 110.3 171.07 109.1 171.31C109.07 171.31 109.07 171.31 109.07 171.31C108.11 171.52 107.15 171.71 106.17 171.84C105.5 171.97 104.81 172.08 104.15 172.16C103.67 172.24 103.19 172.29 102.74 172.32C102.07 172.43 101.41 172.51 100.74 172.53C100.15 172.61 99.5699 172.66 98.9599 172.66C98.3699 172.74 97.79 172.77 97.2 172.77C96.03 172.85 94.83 172.88 93.63 172.88C72.08 172.88 52.6 164.01 38.67 149.67C37.21 148.18 35.7899 146.61 34.4299 144.98C31.7699 141.73 29.3399 138.27 27.2099 134.62C26.1399 132.78 25.16 130.89 24.25 128.97C23.8 128.01 23.34 127.02 22.94 126.07C21.69 123.11 20.6199 120.08 19.7399 116.93C19.4499 115.89 19.18 114.85 18.94 113.79C17.58 108.11 16.8599 102.2 16.8599 96.13C16.8599 93.49 16.99 90.85 17.26 88.27C17.26 88.27 17.26 88.27 17.26 88.24C19.47 66.47 30.77 47.4 47.31 34.85C47.31 34.85 47.31 34.85 47.34 34.85C49.18 33.46 51.0699 32.16 53.0199 30.93C54.0099 30.32 55.02 29.73 56.03 29.14C58.06 28.02 60.1299 26.98 62.2399 26.02C71.8299 21.73 82.44 19.33 93.63 19.33H93.76C94.88 19.33 95.9999 19.36 97.1199 19.44C97.3599 19.41 97.6 19.44 97.81 19.47C98.96 19.5 100.07 19.6 101.19 19.71C101.38 19.74 101.59 19.74 101.78 19.76C102.79 19.87 103.8 20 104.79 20.13C105.19 20.18 105.56 20.24 105.96 20.32C106.89 20.48 107.8 20.64 108.7 20.8C109.29 20.93 109.85 21.04 110.41 21.2C112.19 21.57 113.93 22.03 115.66 22.56C116.35 22.75 117.05 22.96 117.71 23.2C119.36 23.76 121.01 24.35 122.64 25.01C123.33 25.28 124.03 25.57 124.69 25.89C126.02 26.45 127.33 27.06 128.58 27.75C128.79 27.86 129.03 27.99 129.25 28.1C129.89 28.39 130.5 28.74 131.12 29.11C132.51 29.86 133.86 30.68 135.2 31.56C135.87 31.96 136.53 32.39 137.17 32.87C138.25 33.6 139.29 34.4 140.33 35.21C140.54 35.38 140.77 35.52 140.98 35.69C141.59 36.14 142.21 36.62 142.82 37.18C143.43 37.69 144.02 38.19 144.63 38.73C145.22 39.21 145.8 39.74 146.36 40.33C146.95 40.84 147.53 41.4 148.06 41.98C149.21 43.1 150.27 44.24 151.28 45.44C152.35 46.61 153.36 47.84 154.29 49.09C155.76 50.98 157.11 52.93 158.39 54.92L158.58 55.19C159.99 57.45 161.3 59.8 162.5 62.2L162.85 62.84L167.81 71.66L186.43 104.86L192.37 114.63L192.56 114.97L206.25 137.45L206.51 137.87L208.94 141.87L208.95 141.85C225.2 169.19 255.03 187.53 289.16 187.53C327.55 187.53 360.52 164.3 374.81 131.13L363.83 112.07C355.8 145.84 325.42 171.02 289.15 171.02Z" fill="#EF5B34"/>
<path d="M411.9 71.72C412.01 71.27 412.17 70.81 412.33 70.39C412.57 69.62 412.84 68.84 413.1 68.1C413.31 67.49 413.55 66.87 413.79 66.26C413.95 65.78 414.14 65.33 414.35 64.87C414.62 64.2 414.91 63.54 415.23 62.87C416.06 60.95 416.99 59.06 418.03 57.25C418.38 56.61 418.75 55.97 419.12 55.33C419.55 54.58 420.03 53.84 420.48 53.09C421.36 51.7 422.29 50.32 423.28 48.99C423.39 48.83 423.52 48.67 423.65 48.51C424.02 47.98 424.42 47.47 424.82 46.96C425.41 46.16 426.05 45.39 426.71 44.61C427.83 43.28 428.98 42 430.2 40.77C430.81 40.16 431.43 39.54 432.04 38.93C432.68 38.32 433.32 37.73 433.96 37.15C434.6 36.54 435.27 35.98 435.93 35.44C436.6 34.88 437.26 34.32 437.95 33.79C438.48 33.36 439.04 32.94 439.58 32.54C439.95 32.27 440.33 32.01 440.67 31.77C441.18 31.4 441.68 31.05 442.19 30.7C443.63 29.71 445.09 28.78 446.61 27.9C447.36 27.45 448.1 27.05 448.87 26.62C448.92 26.59 448.98 26.57 449.03 26.54C449.75 26.14 450.49 25.77 451.27 25.39C453.35 24.35 455.45 23.42 457.61 22.59C458.36 22.3 459.1 22.03 459.87 21.76C461.23 21.28 462.59 20.83 463.97 20.43C465.04 20.14 466.1 19.84 467.17 19.6C467.25 19.57 467.33 19.55 467.41 19.55C468.18 19.36 468.98 19.18 469.75 19.02C470.28 18.91 470.82 18.81 471.32 18.7C472.28 18.54 473.26 18.38 474.22 18.25C474.81 18.17 475.39 18.09 475.98 18.04C476.41 17.96 476.83 17.91 477.26 17.88C477.95 17.8 478.65 17.72 479.34 17.69C479.55 17.66 479.77 17.64 480.01 17.64C480.78 17.59 481.53 17.53 482.3 17.51C483.29 17.48 484.27 17.46 485.28 17.46C511.36 17.46 534.4 30.49 548.27 50.38L559.71 38.13C559.53 37.9 559.37 37.66 559.19 37.44C558.76 36.85 558.31 36.29 557.83 35.71C556.92 34.56 555.97 33.45 554.98 32.33C554.5 31.8 553.99 31.24 553.52 30.7C553.01 30.17 552.51 29.63 551.97 29.1C551.46 28.59 550.96 28.06 550.42 27.55C549.38 26.51 548.29 25.53 547.2 24.54C546.64 24.06 546.11 23.58 545.55 23.1C544.99 22.62 544.4 22.14 543.84 21.69C541.5 19.8 539.07 18.01 536.54 16.33C535.98 15.98 535.42 15.61 534.86 15.26C522.23 7.29001 507.58 2.31 491.83 1.22C490.5 1.11 489.14 1.06001 487.75 1.01001C486.92 0.98001 486.1 0.980011 485.27 0.980011C484.07 0.980011 482.87 1.01 481.7 1.06C481.19 1.06 480.69 1.08999 480.21 1.10999C479.2 1.15999 478.21 1.24001 477.2 1.32001C475.87 1.43001 474.56 1.59 473.23 1.75C472.25 1.88 471.28 2.01999 470.3 2.17999C469.21 2.33999 468.14 2.54999 467.08 2.76999C465.96 2.97999 464.87 3.21999 463.78 3.48999C463.38 3.56999 463.01 3.68001 462.63 3.76001C461.99 3.92001 461.35 4.10999 460.74 4.26999C459.17 4.69999 457.6 5.14999 456.08 5.67999C455.33 5.91999 454.56 6.19001 453.82 6.45001C452.43 6.96001 451.08 7.45999 449.72 8.01999C447.96 8.73999 446.23 9.50998 444.55 10.36C443.96 10.63 443.41 10.92 442.82 11.21C442.1 11.56 441.41 11.93 440.72 12.33C440.03 12.7 439.33 13.1 438.64 13.5C437.89 13.9 437.17 14.33 436.48 14.78C435.17 15.58 433.9 16.43 432.62 17.28C430.67 18.64 428.76 20.05 426.92 21.52C425.69 22.51 424.49 23.54 423.32 24.58C422.73 25.11 422.15 25.65 421.56 26.18C420.97 26.69 420.42 27.25 419.85 27.81C419.29 28.37 418.73 28.93 418.2 29.49C417.64 30.05 417.08 30.64 416.57 31.22C414.89 33.06 413.27 34.95 411.75 36.92C410.2 38.89 408.74 40.92 407.38 42.99C405.99 45.09 404.72 47.23 403.49 49.44C402.32 51.6 401.2 53.81 400.19 56.07C400.16 56.1 400.14 56.15 400.14 56.2L410.93 75.04C411.23 73.96 411.55 72.84 411.9 71.72Z" fill="#EF5B34"/>
<path d="M485.3 171.02C483.84 171.02 482.37 170.97 480.93 170.89C479.84 170.84 478.74 170.76 477.65 170.62C477.49 170.62 477.36 170.62 477.22 170.59C476.15 170.48 475.06 170.35 474 170.19C473.71 170.16 473.44 170.11 473.17 170.06C472.24 169.93 471.3 169.74 470.4 169.55C469.65 169.42 468.94 169.28 468.19 169.1C467.39 168.91 466.62 168.73 465.85 168.54C463 167.79 460.2 166.89 457.51 165.82C456.9 165.58 456.28 165.31 455.67 165.07C454.13 164.46 452.63 163.76 451.19 163.02C450.44 162.65 449.73 162.27 449 161.87C447.56 161.1 446.15 160.27 444.74 159.42C443.35 158.54 442 157.63 440.66 156.68C439.99 156.2 439.33 155.72 438.66 155.21C437.99 154.73 437.35 154.22 436.74 153.69C435.46 152.68 434.24 151.61 433.04 150.47C432.56 150.02 432.08 149.56 431.63 149.11C431.42 148.95 431.2 148.74 431.02 148.52C430.54 148.04 430.06 147.53 429.58 147.03C429.02 146.44 428.49 145.86 427.93 145.24C427.4 144.65 426.86 144.04 426.36 143.4C425.83 142.76 425.32 142.12 424.84 141.48C424.33 140.84 423.85 140.2 423.38 139.56C422.9 138.89 422.42 138.23 421.97 137.56C421.46 136.81 420.96 136.04 420.45 135.27C419.04 133.01 417.76 130.66 416.51 128.29C416.46 128.24 416.43 128.16 416.4 128.08C414.69 124.83 413.04 121.53 411.23 118.38C410.51 117.1 409.79 115.82 409.04 114.54C408.03 112.73 406.99 110.94 405.98 109.13L392.47 85.47V85.44L390.29 81.6L369 46.01C368.73 45.56 368.44 45.13 368.15 44.7C368.1 44.59 368.02 44.51 367.96 44.41L367.93 44.43C351.4 18.34 322.3 1 289.15 1C251.19 1 218.53 23.69 203.99 56.24L214.8 75.07C223.32 41.94 253.37 17.47 289.16 17.47C318.45 17.47 343.9 33.88 356.84 58.02C357.01 58.31 357.2 58.64 357.37 58.95C357.61 59.41 357.85 59.85 358.08 60.32L368.1 78.2L375.83 91.95L382.38 103.67L382.43 103.75L388.72 114.94C388.72 114.94 400.36 134.07 404.04 140.04C404.17 140.25 404.28 140.47 404.41 140.68C404.62 141.03 404.81 141.32 404.92 141.51C404.95 141.59 404.97 141.64 405.05 141.72C405.08 141.77 405.1 141.8 405.1 141.8C406.11 143.5 407.18 145.18 408.3 146.84C409.42 148.47 410.59 150.06 411.82 151.64C411.85 151.72 411.9 151.77 411.95 151.83C413.12 153.32 414.35 154.79 415.6 156.2C416.93 157.67 418.29 159.1 419.68 160.49C421.78 162.59 424 164.57 426.29 166.46C428.61 168.35 430.98 170.14 433.46 171.76C434.23 172.29 435.01 172.8 435.8 173.3C436.2 173.54 436.63 173.81 437.03 174.05C437.64 174.42 438.28 174.8 438.9 175.14C440.07 175.83 441.24 176.47 442.47 177.09C445.56 178.71 448.76 180.13 452.04 181.38C452.87 181.7 453.69 182.02 454.54 182.31C456.27 182.92 458 183.46 459.79 183.96C460.38 184.12 460.94 184.28 461.52 184.44C464.32 185.19 467.19 185.8 470.1 186.25C470.98 186.41 471.86 186.54 472.74 186.65C473.75 186.81 474.76 186.92 475.78 187.02H475.86C476.79 187.13 477.78 187.21 478.74 187.26C480.9 187.42 483.11 187.5 485.32 187.5C486.31 187.5 487.32 187.47 488.3 187.45C489.45 187.42 490.57 187.37 491.68 187.29C492.51 187.24 493.33 187.16 494.16 187.08C496.1 186.92 498.05 186.65 499.94 186.36C500.55 186.25 501.19 186.17 501.8 186.04C502.49 185.93 503.19 185.8 503.88 185.64C504.04 185.61 504.23 185.59 504.39 185.56C505.06 185.4 505.72 185.27 506.36 185.11C511.74 183.88 516.91 182.18 521.89 180.05C522.72 179.7 523.54 179.33 524.34 178.96C525.19 178.56 526.04 178.16 526.87 177.73C527.7 177.33 528.52 176.9 529.35 176.45C529.48 176.4 529.62 176.32 529.75 176.24C531.08 175.52 532.36 174.77 533.64 174C533.91 173.84 534.17 173.71 534.41 173.52C535.08 173.12 535.74 172.69 536.38 172.27C538.75 170.72 541.04 169.07 543.25 167.29C544.69 166.14 546.1 164.95 547.49 163.72C548.16 163.11 548.85 162.49 549.51 161.85C549.54 161.82 549.59 161.8 549.62 161.77C550.26 161.13 550.87 160.52 551.49 159.9C554.02 157.34 556.39 154.65 558.63 151.83C558.71 151.75 558.79 151.64 558.84 151.56C559.15 151.17 559.44 150.76 559.74 150.37L548.3 138.12C534.42 157.99 511.39 171.02 485.3 171.02Z" fill="#EF5B34"/>
</svg>
